<mxfile host="app.diagrams.net" modified="2023-06-02T08:39:08.242Z" agent="Mozilla/5.0 (Macintosh; Intel Mac OS X 10_15_7) AppleWebKit/537.36 (KHTML, like Gecko) Chrome/112.0.0.0 Safari/537.36" etag="WILKWMw1O2aNfPUXBiCg" version="21.3.7" type="github">
  <diagram name="Page-1" id="otMwi8e10L_2D8bcbTOm">
    <mxGraphModel dx="937" dy="387" grid="1" gridSize="10" guides="1" tooltips="1" connect="1" arrows="1" fold="1" page="1" pageScale="1" pageWidth="827" pageHeight="1169" math="0" shadow="0">
      <root>
        <mxCell id="0" />
        <mxCell id="1" parent="0" />
        <mxCell id="HGsufZ1dyIQnRV2E7i3a-1" value="Actor" style="shape=umlActor;verticalLabelPosition=bottom;verticalAlign=top;html=1;" vertex="1" parent="1">
          <mxGeometry x="10" y="220" width="50" height="80" as="geometry" />
        </mxCell>
        <mxCell id="HGsufZ1dyIQnRV2E7i3a-2" value="" style="endArrow=classic;html=1;rounded=0;exitX=0.5;exitY=0.65;exitDx=0;exitDy=0;exitPerimeter=0;entryX=0;entryY=0.5;entryDx=0;entryDy=0;" edge="1" parent="1" source="HGsufZ1dyIQnRV2E7i3a-1" target="HGsufZ1dyIQnRV2E7i3a-3">
          <mxGeometry width="50" height="50" relative="1" as="geometry">
            <mxPoint x="390" y="300" as="sourcePoint" />
            <mxPoint x="160" y="260" as="targetPoint" />
          </mxGeometry>
        </mxCell>
        <mxCell id="HGsufZ1dyIQnRV2E7i3a-24" value="req page" style="edgeLabel;html=1;align=center;verticalAlign=middle;resizable=0;points=[];" vertex="1" connectable="0" parent="HGsufZ1dyIQnRV2E7i3a-2">
          <mxGeometry x="-0.199" relative="1" as="geometry">
            <mxPoint as="offset" />
          </mxGeometry>
        </mxCell>
        <mxCell id="HGsufZ1dyIQnRV2E7i3a-6" value="" style="edgeStyle=orthogonalEdgeStyle;rounded=0;orthogonalLoop=1;jettySize=auto;html=1;entryX=0;entryY=0.5;entryDx=0;entryDy=0;" edge="1" parent="1" source="HGsufZ1dyIQnRV2E7i3a-3" target="HGsufZ1dyIQnRV2E7i3a-18">
          <mxGeometry relative="1" as="geometry">
            <mxPoint x="420" y="269.9999999999999" as="targetPoint" />
          </mxGeometry>
        </mxCell>
        <mxCell id="HGsufZ1dyIQnRV2E7i3a-25" value="api req" style="edgeLabel;html=1;align=center;verticalAlign=middle;resizable=0;points=[];" vertex="1" connectable="0" parent="HGsufZ1dyIQnRV2E7i3a-6">
          <mxGeometry x="-0.301" y="2" relative="1" as="geometry">
            <mxPoint as="offset" />
          </mxGeometry>
        </mxCell>
        <mxCell id="HGsufZ1dyIQnRV2E7i3a-29" style="edgeStyle=orthogonalEdgeStyle;rounded=0;orthogonalLoop=1;jettySize=auto;html=1;exitX=0;exitY=0.75;exitDx=0;exitDy=0;entryX=0.767;entryY=0.89;entryDx=0;entryDy=0;entryPerimeter=0;" edge="1" parent="1" source="HGsufZ1dyIQnRV2E7i3a-3" target="HGsufZ1dyIQnRV2E7i3a-1">
          <mxGeometry relative="1" as="geometry">
            <mxPoint x="60" y="290.25" as="targetPoint" />
          </mxGeometry>
        </mxCell>
        <mxCell id="HGsufZ1dyIQnRV2E7i3a-30" value="res page" style="edgeLabel;html=1;align=center;verticalAlign=middle;resizable=0;points=[];" vertex="1" connectable="0" parent="HGsufZ1dyIQnRV2E7i3a-29">
          <mxGeometry x="0.0517" relative="1" as="geometry">
            <mxPoint x="-22" as="offset" />
          </mxGeometry>
        </mxCell>
        <mxCell id="HGsufZ1dyIQnRV2E7i3a-3" value="REACTJS" style="whiteSpace=wrap;html=1;aspect=fixed;" vertex="1" parent="1">
          <mxGeometry x="223" y="230" width="80" height="80" as="geometry" />
        </mxCell>
        <mxCell id="HGsufZ1dyIQnRV2E7i3a-8" style="edgeStyle=orthogonalEdgeStyle;rounded=0;orthogonalLoop=1;jettySize=auto;html=1;exitX=1;exitY=0.5;exitDx=0;exitDy=0;" edge="1" parent="1" source="HGsufZ1dyIQnRV2E7i3a-18" target="HGsufZ1dyIQnRV2E7i3a-9">
          <mxGeometry relative="1" as="geometry">
            <mxPoint x="490" y="270" as="targetPoint" />
            <mxPoint x="500" y="269.9999999999999" as="sourcePoint" />
          </mxGeometry>
        </mxCell>
        <mxCell id="HGsufZ1dyIQnRV2E7i3a-27" value="req db" style="edgeLabel;html=1;align=center;verticalAlign=middle;resizable=0;points=[];" vertex="1" connectable="0" parent="HGsufZ1dyIQnRV2E7i3a-8">
          <mxGeometry x="-0.2706" y="1" relative="1" as="geometry">
            <mxPoint as="offset" />
          </mxGeometry>
        </mxCell>
        <mxCell id="HGsufZ1dyIQnRV2E7i3a-34" value="req db" style="edgeLabel;html=1;align=center;verticalAlign=middle;resizable=0;points=[];" vertex="1" connectable="0" parent="HGsufZ1dyIQnRV2E7i3a-8">
          <mxGeometry x="-0.2706" y="1" relative="1" as="geometry">
            <mxPoint y="1" as="offset" />
          </mxGeometry>
        </mxCell>
        <mxCell id="HGsufZ1dyIQnRV2E7i3a-14" style="edgeStyle=orthogonalEdgeStyle;rounded=0;orthogonalLoop=1;jettySize=auto;html=1;entryX=1;entryY=0.75;entryDx=0;entryDy=0;exitX=0;exitY=0.75;exitDx=0;exitDy=0;" edge="1" parent="1" source="HGsufZ1dyIQnRV2E7i3a-18" target="HGsufZ1dyIQnRV2E7i3a-3">
          <mxGeometry relative="1" as="geometry">
            <mxPoint x="490" y="380" as="sourcePoint" />
            <mxPoint x="303" y="370" as="targetPoint" />
            <Array as="points">
              <mxPoint x="370" y="290" />
              <mxPoint x="370" y="290" />
            </Array>
          </mxGeometry>
        </mxCell>
        <mxCell id="HGsufZ1dyIQnRV2E7i3a-26" value="api res" style="edgeLabel;html=1;align=center;verticalAlign=middle;resizable=0;points=[];" vertex="1" connectable="0" parent="HGsufZ1dyIQnRV2E7i3a-14">
          <mxGeometry x="0.4649" y="-1" relative="1" as="geometry">
            <mxPoint x="13" as="offset" />
          </mxGeometry>
        </mxCell>
        <mxCell id="HGsufZ1dyIQnRV2E7i3a-17" style="edgeStyle=orthogonalEdgeStyle;rounded=0;orthogonalLoop=1;jettySize=auto;html=1;exitX=0;exitY=0;exitDx=0;exitDy=52.5;exitPerimeter=0;entryX=0.85;entryY=0.649;entryDx=0;entryDy=0;entryPerimeter=0;" edge="1" parent="1" source="HGsufZ1dyIQnRV2E7i3a-9">
          <mxGeometry relative="1" as="geometry">
            <mxPoint x="650.9999999999999" y="282.49999999999994" as="sourcePoint" />
            <mxPoint x="481.0000000000001" y="281.91999999999996" as="targetPoint" />
          </mxGeometry>
        </mxCell>
        <mxCell id="HGsufZ1dyIQnRV2E7i3a-28" value="res data" style="edgeLabel;html=1;align=center;verticalAlign=middle;resizable=0;points=[];" vertex="1" connectable="0" parent="HGsufZ1dyIQnRV2E7i3a-17">
          <mxGeometry x="0.3201" relative="1" as="geometry">
            <mxPoint x="32" as="offset" />
          </mxGeometry>
        </mxCell>
        <mxCell id="HGsufZ1dyIQnRV2E7i3a-9" value="REDIS" style="shape=cylinder3;whiteSpace=wrap;html=1;boundedLbl=1;backgroundOutline=1;size=15;" vertex="1" parent="1">
          <mxGeometry x="707" y="230" width="60" height="80" as="geometry" />
        </mxCell>
        <mxCell id="HGsufZ1dyIQnRV2E7i3a-10" value="" style="endArrow=none;dashed=1;html=1;dashPattern=1 3;strokeWidth=2;rounded=0;" edge="1" parent="1">
          <mxGeometry width="50" height="50" relative="1" as="geometry">
            <mxPoint x="391" y="530" as="sourcePoint" />
            <mxPoint x="391" y="30" as="targetPoint" />
          </mxGeometry>
        </mxCell>
        <mxCell id="HGsufZ1dyIQnRV2E7i3a-11" value="" style="endArrow=none;dashed=1;html=1;dashPattern=1 3;strokeWidth=2;rounded=0;" edge="1" parent="1">
          <mxGeometry width="50" height="50" relative="1" as="geometry">
            <mxPoint x="627" y="530" as="sourcePoint" />
            <mxPoint x="627" y="30" as="targetPoint" />
          </mxGeometry>
        </mxCell>
        <mxCell id="HGsufZ1dyIQnRV2E7i3a-12" value="" style="endArrow=none;dashed=1;html=1;dashPattern=1 3;strokeWidth=2;rounded=0;" edge="1" parent="1">
          <mxGeometry width="50" height="50" relative="1" as="geometry">
            <mxPoint x="160" y="530" as="sourcePoint" />
            <mxPoint x="160" y="30" as="targetPoint" />
          </mxGeometry>
        </mxCell>
        <mxCell id="HGsufZ1dyIQnRV2E7i3a-18" value="NODEJS/&lt;br&gt;PYTHON" style="whiteSpace=wrap;html=1;aspect=fixed;" vertex="1" parent="1">
          <mxGeometry x="432" y="230" width="80" height="80" as="geometry" />
        </mxCell>
        <mxCell id="HGsufZ1dyIQnRV2E7i3a-21" style="edgeStyle=orthogonalEdgeStyle;rounded=0;orthogonalLoop=1;jettySize=auto;html=1;exitX=0.75;exitY=0;exitDx=0;exitDy=0;" edge="1" parent="1" source="HGsufZ1dyIQnRV2E7i3a-19">
          <mxGeometry relative="1" as="geometry">
            <mxPoint x="85.47368421052647" y="50" as="targetPoint" />
          </mxGeometry>
        </mxCell>
        <mxCell id="HGsufZ1dyIQnRV2E7i3a-19" value="BROWSER" style="text;html=1;strokeColor=none;fillColor=none;align=center;verticalAlign=middle;whiteSpace=wrap;rounded=0;" vertex="1" parent="1">
          <mxGeometry x="40" y="50" width="60" height="30" as="geometry" />
        </mxCell>
        <mxCell id="HGsufZ1dyIQnRV2E7i3a-20" value="CLIENT" style="text;html=1;strokeColor=none;fillColor=none;align=center;verticalAlign=middle;whiteSpace=wrap;rounded=0;" vertex="1" parent="1">
          <mxGeometry x="205" y="50" width="90" height="30" as="geometry" />
        </mxCell>
        <mxCell id="HGsufZ1dyIQnRV2E7i3a-22" value="SERVER" style="text;html=1;strokeColor=none;fillColor=none;align=center;verticalAlign=middle;whiteSpace=wrap;rounded=0;" vertex="1" parent="1">
          <mxGeometry x="450" y="50" width="60" height="30" as="geometry" />
        </mxCell>
        <mxCell id="HGsufZ1dyIQnRV2E7i3a-23" value="DB" style="text;html=1;strokeColor=none;fillColor=none;align=center;verticalAlign=middle;whiteSpace=wrap;rounded=0;" vertex="1" parent="1">
          <mxGeometry x="682" y="50" width="90" height="30" as="geometry" />
        </mxCell>
      </root>
    </mxGraphModel>
  </diagram>
</mxfile>
